# xmcd
#
# Track frame offsets:
#	150
#	25325
#	41372
#	65155
#	81592
#	96307
#	119192
#	139957
#	158014
#	181685
#	207499
#	226191
#	250106
#	271703
#	286979
#	299806
#
# Disc length: 4179 seconds
#
# Revision: 0
# Processed by: cddbd v1.5.2PL0 Copyright (c) Steve Scherf et al.
# Submitted via: EZCDAudioConverter 1.3.4.1
#
DISCID=f5105110
DTITLE=노래와 함께 듣는 세계 명작
DYEAR=2012
DGENRE=
TTITLE0=늑대와 일곱 마리 아기 염소
TTITLE1=V.A - 브레멘 음악대
TTITLE2=V.A - 미운 아기 오리
TTITLE3=V.A - 빨간 모자
TTITLE4=V.A - 인어 공주
TTITLE5=V.A - 아기 돼지 삼 형제
TTITLE6=V.A - 신데렐라
TTITLE7=V.A - 호두까기 인형
TTITLE8=V.A - 오즈의 마법사
TTITLE9=V.A - 피노키오
TTITLE10=V.A - 피터 팬
TTITLE11=V.A - 알라딘과 요술 램프
TTITLE12=V.A - 이상한 나라의 앨리스
TTITLE13=V.A - 잭과 콩나무
TTITLE14=V.A - 장화 신은 고양이 
TTITLE15=V.A - 벌거벗은 임금님
EXTD=
EXTT0=
EXTT1=
EXTT2=
EXTT3=
EXTT4=
EXTT5=
EXTT6=
EXTT7=
EXTT8=
EXTT9=
EXTT10=
EXTT11=
EXTT12=
EXTT13=
EXTT14=
EXTT15=
PLAYORDER=
